<svg width="1000" height="1000" xmlns="http://www.w3.org/2000/svg" stroke="null" style="vector-effect: non-scaling-stroke;">
 <g stroke="null" id="Layer_1">
  <title stroke="null">Layer 1</title>
  <rect stroke="#000" id="svg_28" height="101.96577" width="7.91506" y="392.34386" x="711.16066" fill="#fff"/>
  <rect stroke="#000" id="svg_134" height="5.59999" width="67.60744" y="282.61697" x="900.71147" fill="#fff"/>
  <rect stroke="#000" id="svg_1" height="198.84848" width="5.8" y="19.17076" x="151.25066" fill="#fff"/>
  <rect stroke="#000" id="svg_3" height="5.59999" width="260.17567" y="19.19924" x="150.42334" fill="#fff"/>
  <rect stroke="#000" style="vector-effect: non-scaling-stroke;" id="svg_4" height="0" width="4.79999" y="128.79908" x="208.79896" fill="#fff"/>
  <rect stroke="#000" id="svg_5" height="138.5303" width="6.6" y="24.45632" x="332.23705" fill="#fff"/>
  <rect stroke="#000" id="svg_8" height="5.59999" width="376.93131" y="158.3879" x="269.01661" fill="#fff"/>
  <rect stroke="#000" style="vector-effect: non-scaling-stroke;" id="svg_11" height="5.59999" width="169.13814" y="262.89975" x="303.19973" fill="#fff"/>
  <rect stroke="#000" style="vector-effect: non-scaling-stroke;" id="svg_12" height="140.31385" width="6.6" y="210.64295" x="298.44395" fill="#fff"/>
  <rect stroke="#000" id="svg_13" height="8.60752" width="407.60183" y="592.95092" x="207.03758" fill="#fff"/>
  <rect stroke="#000" id="svg_14" height="5.59999" width="398.8213" y="685.28022" x="528.50161" fill="#fff"/>
  <rect stroke="#000" id="svg_15" height="253.88641" width="6.78903" y="366.7094" x="837.69363" fill="#fff"/>
  <rect stroke="#000" style="vector-effect: non-scaling-stroke;" id="svg_16" height="5.59999" width="355.08842" y="347.98869" x="105.02468" fill="#fff"/>
  <rect stroke="#000" id="svg_17" height="5.59999" width="463.89904" y="303.3941" x="346.91657" fill="#fff"/>
  <rect stroke="#000" id="svg_18" height="39.76912" width="6.6" y="269.55471" x="684.61043" fill="#fff"/>
  <rect stroke="#000" id="svg_19" height="259.58953" width="4.97356" y="303.89756" x="507.56194" fill="#fff"/>
  <rect stroke="#000" id="svg_20" height="515.74362" width="6.6" y="403.94327" x="156.79297" fill="#fff"/>
  <rect stroke="#000" id="svg_22" height="5.08186" width="433.14076" y="759.22283" x="160.95702" fill="#fff"/>
  <rect stroke="#000" style="vector-effect: non-scaling-stroke;" id="svg_23" height="5.59999" width="112.4487" y="741.15053" x="-5.96522" fill="#fff"/>
  <rect stroke="#000" style="vector-effect: non-scaling-stroke;" id="svg_25" height="195.23808" width="6.6" y="809.28125" x="373.2576" fill="#fff"/>
  <rect stroke="#000" id="svg_26" height="124.79406" width="6.94182" y="845.4952" x="100.09848" fill="#fff"/>
  <rect stroke="#000" id="svg_29" height="5.59999" width="130.6602" y="424.10172" x="507.83133" fill="#fff"/>
  <rect stroke="#000" id="svg_30" height="346.4984" width="8.10256" y="489.39794" x="674.03599" fill="#fff"/>
  <rect stroke="#000" id="svg_31" height="5.59999" width="105.74991" y="859.00495" x="158.92375" fill="#fff"/>
  <rect stroke="#000" style="vector-effect: non-scaling-stroke;" id="svg_32" height="5.59999" width="161.93327" y="806.54613" x="217.93097" fill="#fff"/>
  <rect stroke="#000" id="svg_33" height="58.59922" width="5.5796" y="806.39523" x="258.29623" fill="#fff"/>
  <rect stroke="#000" style="vector-effect: non-scaling-stroke;" id="svg_34" height="26.08031" width="5.34585" y="812.47333" x="508.02279" fill="#fff"/>
  <rect stroke="#000" style="vector-effect: non-scaling-stroke;" id="svg_35" height="110.49057" width="7.20868" y="759.29006" x="635.81222" fill="#fff"/>
  <rect stroke="#000" style="vector-effect: non-scaling-stroke;" id="svg_36" height="75.78755" width="6.7145" y="808.93636" x="791.32702" fill="#fff"/>
  <rect stroke="#000" id="svg_37" height="5.59999" width="171.07276" y="303.62259" x="66.23656" fill="#fff"/>
  <rect stroke="#000" id="svg_38" height="190.72221" width="8.11515" y="214.03732" x="65.1222" fill="#fff"/>
  <rect stroke="#000" id="svg_39" height="5.59999" width="170.32096" y="399.70101" x="65.26525" fill="#fff"/>
  <rect stroke="#000" style="vector-effect: non-scaling-stroke;" id="svg_40" height="57.45276" width="5.34585" y="759.34784" x="428.72748" fill="#fff"/>
  <rect stroke="#000" id="svg_41" height="63.58203" width="7.54038" y="907.31944" x="279.86485" fill="#fff"/>
  <rect stroke="#000" style="vector-effect: non-scaling-stroke;" id="svg_42" height="5.59999" width="50.38821" y="903.74893" x="-0.59391" fill="#fff"/>
  <rect stroke="#000" id="svg_43" height="58.80469" width="9.5047" y="740.96845" x="97.63458" fill="#fff"/>
  <rect stroke="#000" style="vector-effect: non-scaling-stroke;" id="svg_44" height="5.59999" width="53.88473" y="845.14841" x="53.25224" fill="#fff"/>
  <rect stroke="#000" style="vector-effect: non-scaling-stroke;" id="svg_45" height="55.94406" width="57.34266" y="-3.36134" x="470.21802" fill="#fff"/>
  <rect stroke="#000" id="svg_47" height="61.93088" width="9.43439" y="211.21766" x="588.13824" fill="#fff"/>
  <rect stroke="#000" id="svg_49" height="5.59999" width="168.41521" y="183.39477" x="642.25907" fill="#fff"/>
  <rect stroke="#000" style="vector-effect: non-scaling-stroke;" id="svg_50" height="55.94406" width="57.34266" y="46.2185" x="576.94075" fill="#fff"/>
  <rect stroke="#000" style="vector-effect: non-scaling-stroke;" id="svg_51" height="55.94406" width="57.34266" y="-0.84033" x="687.02482" fill="#fff"/>
  <rect stroke="#000" style="vector-effect: non-scaling-stroke;" id="svg_52" height="55.94406" width="57.34266" y="100.00003" x="686.18448" fill="#fff"/>
  <rect stroke="#000" style="vector-effect: non-scaling-stroke;" id="svg_53" height="55.94406" width="57.34266" y="108.4034" x="471.05836" fill="#fff"/>
  <rect stroke="#000" style="vector-effect: non-scaling-stroke;" id="svg_54" height="5.59999" width="202.33652" y="950.09688" x="627.47843" fill="#fff"/>
  <rect stroke="#000" style="vector-effect: non-scaling-stroke;" id="svg_55" height="132.60359" width="5.45665" y="814.84948" x="448.69072" fill="#fff"/>
  <rect stroke="#000" style="vector-effect: non-scaling-stroke;" id="svg_56" height="19.34503" width="4.82772" y="892.02883" x="671.8978" fill="#fff"/>
  <rect stroke="#000" style="vector-effect: non-scaling-stroke;" id="svg_57" height="21.21267" width="4.19878" y="865.64424" x="700.94946" fill="#fff"/>
  <rect stroke="#000" style="vector-effect: non-scaling-stroke;" id="svg_60" height="95.22709" width="6.08558" y="717.62363" x="798.01561" fill="#fff"/>
  <rect stroke="#000" id="svg_61" height="5.59999" width="123.25794" y="808.28616" x="709.46755" fill="#fff"/>
  <rect stroke="#000" style="vector-effect: non-scaling-stroke;" id="svg_62" height="5.59999" width="86.02577" y="833.39859" x="508.22502" fill="#fff"/>
  <rect stroke="#000" style="vector-effect: non-scaling-stroke;" id="svg_63" height="49.31007" width="5.34585" y="759.34782" x="588.91327" fill="#fff"/>
  <rect stroke="#000" style="vector-effect: non-scaling-stroke;" id="svg_64" height="5.59999" width="55.15448" y="811.93825" x="428.71125" fill="#fff"/>
  <rect stroke="#000" style="vector-effect: non-scaling-stroke;" id="svg_66" height="120.2562" width="5.55526" y="852.03084" x="414.92333" fill="#fff"/>
  <rect stroke="#000" style="vector-effect: non-scaling-stroke;" id="svg_95" height="24.6253" width="23.25152" y="952.15441" x="868.96303" fill="#fff"/>
  <rect stroke="#000" style="vector-effect: non-scaling-stroke;" id="svg_67" height="6.38149" width="543.12431" y="971.90528" x="414.62315" fill="#fff"/>
  <rect stroke="#000" style="vector-effect: non-scaling-stroke;" id="svg_68" height="77.81643" width="4.82772" y="834.19771" x="731.76707" fill="#fff"/>
  <rect stroke="#000" style="vector-effect: non-scaling-stroke;" id="svg_69" height="5.61916" width="63.87907" y="906.49647" x="672.10359" fill="#fff"/>
  <rect stroke="#000" style="vector-effect: non-scaling-stroke;" id="svg_59" height="60.45157" width="4.82772" y="719.76521" x="759.25716" fill="#fff"/>
  <rect stroke="#000" id="svg_71" height="5.59999" width="90.42832" y="719.56211" x="674.26279" fill="#fff"/>
  <rect stroke="#000" style="vector-effect: non-scaling-stroke;" id="svg_72" height="86.62146" width="5.45665" y="868.15997" x="761.32681" fill="#fff"/>
  <rect stroke="#000" style="vector-effect: non-scaling-stroke;" id="svg_77" height="5.61916" width="37.78856" y="786.37068" x="827.4495" fill="#fff"/>
  <rect stroke="#000" style="vector-effect: non-scaling-stroke;" id="svg_79" height="9.25227" width="140.99324" y="941.33111" x="448.45203" fill="#fff"/>
  <rect stroke="#000" id="svg_80" height="28.42158" width="7.09568" y="891.2529" x="543.67541" fill="#fff"/>
  <rect stroke="#000" style="vector-effect: non-scaling-stroke;" id="svg_82" height="7.41705" width="310.1304" y="719.90509" x="334.9127" fill="#fff"/>
  <rect stroke="#000" id="svg_83" height="135.49056" width="9.58962" y="592.62339" x="472.63812" fill="#fff"/>
  <rect stroke="#000" style="vector-effect: non-scaling-stroke;" id="svg_84" height="55.94406" width="57.34266" y="48.80955" x="802.85115" fill="#fff"/>
  <rect stroke="#000" style="vector-effect: non-scaling-stroke;" id="svg_85" height="55.94406" width="57.34266" y="102.38099" x="919.13379" fill="#fff"/>
  <rect stroke="#000" style="vector-effect: non-scaling-stroke;" id="svg_86" height="55.94406" width="57.34266" y="0.00003" x="919.51781" fill="#fff"/>
  <rect stroke="#000" id="svg_87" height="65.48488" width="7.07668" y="157.62894" x="845.04808" fill="#fff"/>
  <rect stroke="#000" style="vector-effect: non-scaling-stroke;" id="svg_88" height="6.62927" width="22.6452" y="823.8829" x="875.01863" fill="#fff"/>
  <rect stroke="#000" style="vector-effect: non-scaling-stroke;" id="svg_90" height="103.10896" width="6.08559" y="689.21522" x="861.06592" fill="#fff"/>
  <rect stroke="#000" id="svg_91" height="35.54969" width="37.53722" y="685.36557" x="829.4672" fill="#fff"/>
  <rect stroke="#000" style="vector-effect: non-scaling-stroke;" id="svg_92" height="33.13033" width="48.02109" y="966.81715" x="-4.40371" fill="#fff"/>
  <rect stroke="#000" id="svg_93" height="34.09187" width="34.55955" y="806.24022" x="345.59629" fill="#fff"/>
  <rect stroke="#000" id="svg_98" height="6.62927" width="34.29055" y="881.31841" x="923.50204" fill="#fff"/>
  <rect stroke="#000" style="vector-effect: non-scaling-stroke;" id="svg_99" height="25.98701" width="8.70858" y="923.68845" x="580.77213" fill="#fff"/>
  <rect stroke="#000" style="vector-effect: non-scaling-stroke;" id="svg_100" height="30.01926" width="7.09568" y="925.30135" x="625.93336" fill="#fff"/>
  <rect stroke="#000" style="vector-effect: non-scaling-stroke;" id="svg_101" height="5.59999" width="114.95656" y="784.97097" x="451.6213" fill="#fff"/>
  <rect stroke="#000" style="vector-effect: non-scaling-stroke;" id="svg_103" height="22.77112" width="21.98095" y="784.85659" x="544.96713" fill="#fff"/>
  <rect stroke="#000" style="vector-effect: non-scaling-stroke;" id="svg_21" height="5.61916" width="256.33187" y="864.98704" x="448.83319" fill="#fff"/>
  <rect stroke="#000" style="vector-effect: non-scaling-stroke;" id="svg_24" height="9.21446" width="159.94072" y="907.41558" x="213.3119" fill="#fff"/>
  <rect stroke="#000" id="svg_27" height="5.79784" width="223.88603" y="965.09666" x="84.38439" fill="#fff"/>
  <rect stroke="#000" style="vector-effect: non-scaling-stroke;" id="svg_78" height="5.61916" width="185.26266" y="891.40213" x="491.60052" fill="#fff"/>
  <rect stroke="#000" style="vector-effect: non-scaling-stroke;" id="svg_76" height="28.13092" width="5.45665" y="786.80095" x="826.96256" fill="#fff"/>
  <rect stroke="#000" style="vector-effect: non-scaling-stroke;" id="svg_75" height="228.5604" width="6.08558" y="749.6991" x="892.12653" fill="#fff"/>
  <rect stroke="#000" style="vector-effect: non-scaling-stroke;" id="svg_73" height="115.55229" width="6.08558" y="839.85808" x="823.59097" fill="#fff"/>
  <rect stroke="#000" id="svg_89" height="4.81271" width="73.91661" y="862.98358" x="823.41727" fill="#fff"/>
  <rect stroke="#000" style="vector-effect: non-scaling-stroke;" id="svg_97" height="96.99948" width="7.09569" y="881.01225" x="950.71239" fill="#fff"/>
  <rect stroke="#000" id="svg_96" height="202.81234" width="6.08558" y="685.05265" x="922.42956" fill="#fff"/>
  <rect stroke="#000" style="vector-effect: non-scaling-stroke;" id="svg_58" height="14.56128" width="4.82771" y="765.52531" x="715.30462" fill="#fff"/>
  <rect stroke="#000" style="vector-effect: non-scaling-stroke;" id="svg_70" height="5.59999" width="48.28993" y="775.53696" x="715.77219" fill="#fff"/>
  <rect stroke="#000" id="svg_46" height="6.22892" width="103.28428" y="266.66288" x="588.37388" fill="#fff"/>
  <rect stroke="#000" id="svg_10" height="5.59999" width="276.28081" y="210.81214" x="370.29109" fill="#fff"/>
  <rect stroke="#000" id="svg_9" height="6.22892" width="66.39939" y="210.15854" x="271.1476" fill="#fff"/>
  <rect stroke="#000" id="svg_94" height="26.115" width="23.25152" y="862.66126" x="823.58487" fill="#fff"/>
  <rect stroke="#000" id="svg_104" height="265.07642" width="6.08558" y="590.08421" x="950.10248" fill="#fff"/>
  <rect stroke="#000" id="svg_105" height="5.59999" width="180.7911" y="651.63766" x="775.07557" fill="#fff"/>
  <rect stroke="#000" id="svg_106" height="5.59999" width="52.06354" y="588.11571" x="903.82231" fill="#fff"/>
  <rect stroke="#000" id="svg_107" height="5.59999" width="63.38428" y="552.26669" x="940.92918" fill="#fff"/>
  <rect stroke="#000" id="svg_108" height="35.00222" width="6.78903" y="622.07154" x="874.80051" fill="#fff"/>
  <rect stroke="#000" id="svg_109" height="42.54938" width="6.1601" y="551.63136" x="903.10237" fill="#fff"/>
  <rect stroke="#000" id="svg_110" height="5.59999" width="71.56038" y="551.63776" x="837.78464" fill="#fff"/>
  <rect stroke="#000" id="svg_111" height="5.59999" width="104.80254" y="489.3456" x="674.78382" fill="#fff"/>
  <rect stroke="#000" id="svg_112" height="4.50786" width="84.04171" y="274.92845" x="728.97721" fill="#fff"/>
  <rect stroke="#000" id="svg_113" height="105.80366" width="7.07668" y="399.70199" x="905.41391" fill="#fff"/>
  <rect stroke="#000" id="svg_114" height="133.24267" width="7.07668" y="371.65322" x="939.56023" fill="#fff"/>
  <rect stroke="#000" id="svg_116" height="152.75485" width="7.07668" y="363.7264" x="873.09685" fill="#fff"/>
  <rect stroke="#000" id="svg_117" height="197.17802" width="4.14838" y="422.86473" x="805.13349" fill="#fff"/>
  <rect stroke="#000" id="svg_118" height="82.99818" width="5.66355" y="574.23967" x="774.84368" fill="#fff"/>
  <rect stroke="#000" id="svg_120" height="5.59999" width="68.2172" y="311.2969" x="935.75932" fill="#fff"/>
  <rect stroke="#000" id="svg_122" height="33.87163" width="7.07668" y="310.60597" x="898.71162" fill="#fff"/>
  <rect stroke="#000" id="svg_123" height="5.59999" width="47.4855" y="371.05297" x="898.56422" fill="#fff"/>
  <rect stroke="#000" id="svg_121" height="5.59999" width="78.74053" y="340.56518" x="898.40673" fill="#fff"/>
  <rect stroke="#000" id="svg_119" height="5.59999" width="67.60744" y="310.68714" x="838.1984" fill="#fff"/>
  <rect stroke="#000" id="svg_124" height="35.54969" width="37.53722" y="489.26156" x="741.80482" fill="#fff"/>
  <rect stroke="#000" id="svg_125" height="35.54969" width="37.53722" y="570.43044" x="743.10352" fill="#fff"/>
  <rect stroke="#000" id="svg_126" height="94.55626" width="5.65266" y="245.3378" x="836.81645" fill="#fff"/>
  <rect stroke="#000" id="svg_127" height="5.59999" width="40.31476" y="365.9503" x="804.08754" fill="#fff"/>
  <rect stroke="#000" id="svg_128" height="70.35555" width="7.66623" y="302.74533" x="802.66136" fill="#fff"/>
  <rect stroke="#000" id="svg_129" height="27.39118" width="7.66623" y="267.48691" x="874.73946" fill="#fff"/>
  <rect stroke="#000" id="svg_130" height="6.47718" width="21.66613" y="267.0784" x="861.05837" fill="#fff"/>
  <rect stroke="#000" id="svg_131" height="6.47719" width="228.33311" y="216.38889" x="774.3919" fill="#fff"/>
  <rect stroke="#000" id="svg_132" height="5.59999" width="163.69509" y="241.60849" x="806.36917" fill="#fff"/>
  <rect stroke="#000" id="svg_133" height="46.43897" width="7.66623" y="241.91562" x="962.48741" fill="#fff"/>
  <rect stroke="#000" id="svg_135" height="96.63773" width="7.03787" y="183.01879" x="728.70452" fill="#fff"/>
  <rect stroke="#000" id="svg_136" height="37.5057" width="6.78903" y="241.48574" x="806.32962" fill="#fff"/>
  <rect stroke="#000" id="svg_48" height="57.80091" width="6.02525" y="158.4486" x="641.04163" fill="#fff"/>
  <rect stroke="#000" id="svg_115" height="173.48655" width="7.68644" y="340.55568" x="970.65778" fill="#fff"/>
  <rect stroke="#000" id="svg_140" height="5.59999" width="127.3635" y="422.44883" x="681.38202" fill="#fff"/>
  <rect stroke="#000" id="svg_141" height="90.8625" width="9.58962" y="595.10273" x="298.25814" fill="#fff"/>
  <rect stroke="#000" id="svg_142" height="8.60752" width="99.61317" y="645.84343" x="156.48668" fill="#fff"/>
  <rect stroke="#000" id="svg_143" height="34.09187" width="34.55955" y="729.51853" x="155.23837" fill="#fff"/>
  <rect stroke="#000" id="svg_144" height="34.09187" width="34.55955" y="730.20724" x="250.55507" fill="#fff"/>
  <rect stroke="#000" id="svg_145" height="34.09187" width="34.55955" y="591.50213" x="448.90197" fill="#fff"/>
  <rect stroke="#000" id="svg_146" height="34.09187" width="34.55955" y="524.42232" x="205.92701" fill="#fff"/>
  <rect stroke="#000" id="svg_147" height="34.09187" width="34.55955" y="526.90165" x="289.398" fill="#fff"/>
  <rect stroke="#000" id="svg_148" height="34.09187" width="34.55955" y="450.04222" x="288.57156" fill="#fff"/>
  <rect stroke="#000" id="svg_149" height="34.09187" width="34.55955" y="451.69511" x="205.92701" fill="#fff"/>
  <rect stroke="#000" id="svg_150" height="34.09187" width="34.55955" y="450.04222" x="368.79134" fill="#fff"/>
  <rect stroke="#000" id="svg_151" height="34.09187" width="34.55955" y="523.66859" x="367.69244" fill="#fff"/>
  <rect stroke="#000" id="svg_152" height="34.09187" width="34.55955" y="451.14112" x="439.12101" fill="#fff"/>
  <rect stroke="#000" id="svg_153" height="34.09187" width="34.55955" y="521.47079" x="436.9232" fill="#fff"/>
  <rect stroke="#000" id="svg_154" height="34.09187" width="34.55955" y="453.33892" x="536.9232" fill="#fff"/>
  <rect stroke="#000" id="svg_155" height="34.09187" width="34.55955" y="523.66859" x="536.9232" fill="#fff"/>
  <rect stroke="#000" id="svg_156" height="34.09187" width="34.55955" y="454.43782" x="605.05508" fill="#fff"/>
  <rect stroke="#000" id="svg_157" height="34.09187" width="34.55955" y="523.66859" x="607.25288" fill="#fff"/>
  <rect stroke="#000" id="svg_158" height="34.09187" width="34.55955" y="448.52707" x="87.05641" fill="#fff"/>
  <rect stroke="#000" id="svg_159" height="34.09187" width="34.55955" y="522.76949" x="84.02611" fill="#fff"/>
  <rect stroke="#000" id="svg_160" height="34.09187" width="34.55955" y="522.76949" x="26.45035" fill="#fff"/>
  <rect stroke="#000" id="svg_161" height="34.09187" width="34.55955" y="448.52707" x="24.9352" fill="#fff"/>
  <rect stroke="#000" id="svg_162" height="34.09187" width="34.55955" y="644.53244" x="368.59894" fill="#fff"/>
  <rect stroke="#000" id="svg_163" height="34.09187" width="34.55955" y="594.53244" x="579.205" fill="#fff"/>
  <rect stroke="#000" id="svg_164" height="37.12218" width="36.0747" y="389.98698" x="682.2353" fill="#fff"/>
  <rect stroke="#000" id="svg_165" height="37.12218" width="36.0747" y="303.62334" x="507.99287" fill="#fff"/>
  <rect stroke="#000" id="svg_166" height="37.12218" width="36.0747" y="303.62334" x="774.65954" fill="#fff"/>
  <rect stroke="#000" id="svg_168" height="6.22892" width="90.6418" y="258.64341" x="107.51116" fill="#fff"/>
  <rect stroke="#000" id="svg_169" height="206.42425" width="5.8" y="57.04956" x="193.67492" fill="#fff"/>
  <rect stroke="#000" id="svg_170" height="150.3636" width="5.8" y="66.14048" x="39.12939" fill="#fff"/>
  <rect stroke="#000" id="svg_171" height="5.59999" width="82.44212" y="149.70088" x="72.84101" fill="#fff"/>
  <rect stroke="#000" id="svg_172" height="5.59999" width="112.74517" y="67.88266" x="41.02282" fill="#fff"/>
  <rect stroke="#000" id="svg_173" height="34.09187" width="34.55955" y="66.70873" x="38.57157" fill="#fff"/>
  <rect stroke="#000" id="svg_174" height="5.59999" width="82.44212" y="149.70088" x="72.84101" fill="#fff"/>
  <rect stroke="#000" id="svg_175" height="5.59999" width="73.35121" y="210.30697" x="39.50766" fill="#fff"/>
  <rect stroke="#000" id="svg_2" height="255.41561" width="5.84812" y="54.73437" x="231.2929" fill="#fff"/>
  <rect stroke="#000" id="svg_178" height="34.09187" width="34.55955" y="-2.98827" x="-2.33754" fill="#fff"/>
  <rect stroke="#000" id="svg_179" height="34.09187" width="34.55955" y="715.19382" x="71.90489" fill="#fff"/>
  <rect stroke="#000" id="svg_180" height="1016.89834" width="19.58075" y="-4.78757" x="-15.65507" fill="#fff"/>
  <rect stroke="#000" id="svg_181" height="10.51803" width="1019.19218" y="-7.03027" x="-10.23241" fill="#fff"/>
  <rect stroke="#000" id="svg_182" height="1016.89834" width="19.58075" y="-4.78757" x="-15.65507" fill="#fff"/>
  <rect stroke="#000" id="svg_183" height="1016.89834" width="19.58075" y="-6.19602" x="995.61245" fill="#fff"/>
  <rect stroke="#000" id="svg_184" height="10.51803" width="1019.19218" y="-7.03027" x="-10.23241" fill="#fff"/>
  <rect stroke="#000" id="svg_185" height="10.51803" width="1019.19218" y="995.78656" x="-11.64086" fill="#fff"/>
 </g>
</svg>